<?xml version="1.0" encoding="UTF-8" standalone="no"?>
<!-- Created with Inkscape (http://www.inkscape.org/) -->

<svg
   version="1.1"
   id="svg1"
   width="1024"
   height="1024"
   viewBox="0 0 1024 1024"
   sodipodi:docname="improvement.svg"
   inkscape:version="1.4.2 (ebf0e940d0, 2025-05-08)"
   xml:space="preserve"
   inkscape:export-filename="../mod/electrode_improvement__.png"
   inkscape:export-xdpi="96"
   inkscape:export-ydpi="96"
   xmlns:inkscape="http://www.inkscape.org/namespaces/inkscape"
   xmlns:sodipodi="http://sodipodi.sourceforge.net/DTD/sodipodi-0.dtd"
   xmlns="http://www.w3.org/2000/svg"
   xmlns:svg="http://www.w3.org/2000/svg"><defs
     id="defs1"><filter
       inkscape:collect="always"
       style="color-interpolation-filters:sRGB"
       id="filter55"
       x="-0.011701995"
       y="-0.012313578"
       width="1.023404"
       height="1.0246272"><feGaussianBlur
         inkscape:collect="always"
         stdDeviation="4.1924927"
         id="feGaussianBlur55" /></filter><filter
       inkscape:collect="always"
       style="color-interpolation-filters:sRGB"
       id="filter6"
       x="-0.22970671"
       y="-0.4037334"
       width="1.4594134"
       height="1.8074668"><feGaussianBlur
         inkscape:collect="always"
         stdDeviation="14.761504"
         id="feGaussianBlur6" /></filter><filter
       inkscape:collect="always"
       style="color-interpolation-filters:sRGB"
       id="filter7"
       x="-0.23663803"
       y="-0.37432436"
       width="1.4732761"
       height="1.7486487"><feGaussianBlur
         inkscape:collect="always"
         stdDeviation="3.0413854"
         id="feGaussianBlur7" /></filter><filter
       inkscape:collect="always"
       style="color-interpolation-filters:sRGB"
       id="filter21"
       x="-0.025209672"
       y="-0.0092025594"
       width="1.0504193"
       height="1.0184051"><feGaussianBlur
         inkscape:collect="always"
         stdDeviation="1.9440406"
         id="feGaussianBlur21" /></filter><filter
       inkscape:collect="always"
       style="color-interpolation-filters:sRGB"
       id="filter63"
       x="-0.24610427"
       y="-0.3892984"
       width="1.4922085"
       height="1.7785968"><feGaussianBlur
         inkscape:collect="always"
         stdDeviation="9.4891497"
         id="feGaussianBlur63" /></filter><filter
       inkscape:collect="always"
       style="color-interpolation-filters:sRGB"
       id="filter65"
       x="-0.10333178"
       y="-0.19704387"
       width="1.2066636"
       height="1.3940877"><feGaussianBlur
         inkscape:collect="always"
         stdDeviation="9.4891497"
         id="feGaussianBlur65" /></filter><filter
       inkscape:collect="always"
       style="color-interpolation-filters:sRGB"
       id="filter72"
       x="-0.026301518"
       y="-0.027736592"
       width="1.052603"
       height="1.0554732"><feGaussianBlur
         inkscape:collect="always"
         stdDeviation="2.7043179"
         id="feGaussianBlur72" /></filter></defs><sodipodi:namedview
     id="namedview1"
     pagecolor="#c1a9bb"
     bordercolor="#000000"
     borderopacity="0.25"
     inkscape:showpageshadow="2"
     inkscape:pageopacity="0.0"
     inkscape:pagecheckerboard="0"
     inkscape:deskcolor="#d1d1d1"
     showgrid="true"
     inkscape:zoom="0.64"
     inkscape:cx="208.59375"
     inkscape:cy="490.625"
     inkscape:window-width="1920"
     inkscape:window-height="1052"
     inkscape:window-x="0"
     inkscape:window-y="0"
     inkscape:window-maximized="1"
     inkscape:current-layer="layer4"><inkscape:grid
       type="axonomgrid"
       id="grid2"
       units="px"
       originx="1"
       originy="1"
       spacingx="3.7795276"
       spacingy="3.9000001"
       empcolor="#606060"
       empopacity="0.30196078"
       color="#ffffff"
       opacity="0.14901961"
       empspacing="5"
       dotted="false"
       gridanglex="32.3"
       gridanglez="32.3"
       enabled="true"
       visible="true" /></sodipodi:namedview><g
     inkscape:groupmode="layer"
     id="layer2"
     inkscape:label="ref"
     style="display:none"
     transform="matrix(1.1313111,0,0,1.1313111,-80.419657,93.509184)"
     sodipodi:insensitive="true"><g
       inkscape:groupmode="layer"
       id="g38"
       inkscape:label="Layer 1"
       style="display:inline;mix-blend-mode:normal;filter:url(#filter55)"
       transform="translate(-0.13272776,-1.9872707e-5)"><path
         style="display:inline;opacity:1;fill:#594436;fill-opacity:1"
         d="M 524.63116,981.62502 522.86209,683.36744 93.864417,423.99506 94.21797,724.46093 Z"
         id="path22"
         sodipodi:nodetypes="ccccc" /><path
         style="display:inline;fill:#756055;fill-opacity:1"
         d="m 524.63116,981.62502 -1.76907,-298.25758 430.58867,-260.78659 0.26547,303.11738 z"
         id="path23"
         sodipodi:nodetypes="ccccc" /><path
         style="opacity:1;fill:#665552;fill-opacity:1"
         d="m 93.864417,423.99506 92.211283,-67.34429 59.21703,154.1231 z"
         id="path24"
         sodipodi:nodetypes="cccc" /><path
         style="opacity:1;fill:#7d6a60;fill-opacity:1"
         d="M 245.29273,510.77387 509.95818,459.25001 186.0757,356.65077 Z"
         id="path25"
         sodipodi:nodetypes="cccc" /><path
         style="opacity:1;fill:#594436;fill-opacity:1"
         d="M 245.29273,510.77387 522.86209,683.36744 93.864417,423.99506 Z"
         id="path26"
         sodipodi:nodetypes="cccc" /><path
         style="opacity:1;fill:#665552;fill-opacity:1"
         d="m 245.29273,510.77387 264.66545,-51.52386 v 39 z"
         id="path27"
         sodipodi:nodetypes="cccc" /><path
         style="opacity:1;fill:#7d6a60;fill-opacity:1"
         d="M 509.95818,498.25001 760.03717,543.81903 522.86209,683.36744 Z"
         id="path28"
         sodipodi:nodetypes="cccc" /><path
         style="opacity:1;fill:#7d6a60;fill-opacity:1"
         d="M 509.95818,498.25001 245.29273,510.77387 522.86209,683.36744 Z"
         id="path29"
         sodipodi:nodetypes="cccc" /><path
         style="opacity:1;fill:#8f7d73;fill-opacity:1"
         d="m 953.45076,422.58085 -320.10877,-60.83084 -123.38381,136.5 250.07899,45.56902 z"
         id="path30"
         sodipodi:nodetypes="ccccc" /><path
         style="opacity:1;fill:#665552;fill-opacity:1"
         d="m 509.95818,498.25001 123.38381,-136.5 -123.38381,97.5 z"
         id="path31"
         sodipodi:nodetypes="cccc" /><path
         style="opacity:1;fill:#8f7d73;fill-opacity:1"
         d="m 186.0757,356.65077 209.86901,-105.12776 114.01347,207.727 z"
         id="path32"
         sodipodi:nodetypes="cccc" /><path
         style="opacity:1;fill:#95837b;fill-opacity:1"
         d="m 395.94471,251.52301 237.39728,110.227 -123.38381,97.5 z"
         id="path33"
         sodipodi:nodetypes="cccc" /><path
         style="opacity:1;fill:#7d6a60;fill-opacity:1"
         d="m 519.37066,164.47974 -123.42595,87.04327 237.39728,110.227 z"
         id="path34"
         sodipodi:nodetypes="cccc" /><path
         style="opacity:1;fill:#8f7d73;fill-opacity:1"
         d="M 633.34199,361.75001 818.58968,341.18763 519.37066,164.47974 Z"
         id="path35"
         sodipodi:nodetypes="cccc" /><path
         style="opacity:1;fill:#665552;fill-opacity:1"
         d="m 818.58968,341.18763 15.25099,30.31238 -200.49868,-9.75 z"
         id="path36"
         sodipodi:nodetypes="cccc" /><path
         style="opacity:1;fill:#6b5a52;fill-opacity:1"
         d="m 953.45076,422.58085 -134.86108,-81.39322 15.25099,30.31238 z"
         id="path37"
         sodipodi:nodetypes="cccc" /><path
         style="opacity:1;fill:#7d6a60;fill-opacity:1"
         d="m 953.45076,422.58085 -320.10877,-60.83084 200.49868,9.75 z"
         id="path38"
         sodipodi:nodetypes="cccc" /></g><g
       inkscape:groupmode="layer"
       id="g55"
       inkscape:label="Layer 1"
       style="display:inline"><path
         style="display:inline;opacity:1;fill:#594436;fill-opacity:1"
         d="M 524.63116,981.62502 522.86209,683.36744 93.864417,423.99506 94.21797,724.46093 Z"
         id="path39"
         sodipodi:nodetypes="ccccc" /><path
         style="display:inline;fill:#756055;fill-opacity:1"
         d="m 524.63116,981.62502 -1.76907,-298.25758 430.58867,-260.78659 0.26547,303.11738 z"
         id="path40"
         sodipodi:nodetypes="ccccc" /><path
         style="opacity:1;fill:#665552;fill-opacity:1"
         d="m 93.864417,423.99506 92.211283,-67.34429 59.21703,154.1231 z"
         id="path41"
         sodipodi:nodetypes="cccc" /><path
         style="opacity:1;fill:#7d6a60;fill-opacity:1"
         d="M 245.29273,510.77387 509.95818,459.25001 186.0757,356.65077 Z"
         id="path42"
         sodipodi:nodetypes="cccc" /><path
         style="opacity:1;fill:#594436;fill-opacity:1"
         d="M 245.29273,510.77387 522.86209,683.36744 93.864417,423.99506 Z"
         id="path43"
         sodipodi:nodetypes="cccc" /><path
         style="opacity:1;fill:#665552;fill-opacity:1"
         d="m 245.29273,510.77387 264.66545,-51.52386 v 39 z"
         id="path44"
         sodipodi:nodetypes="cccc" /><path
         style="opacity:1;fill:#7d6a60;fill-opacity:1"
         d="M 509.95818,498.25001 760.03717,543.81903 522.86209,683.36744 Z"
         id="path45"
         sodipodi:nodetypes="cccc" /><path
         style="opacity:1;fill:#7d6a60;fill-opacity:1"
         d="M 509.95818,498.25001 245.29273,510.77387 522.86209,683.36744 Z"
         id="path46"
         sodipodi:nodetypes="cccc" /><path
         style="opacity:1;fill:#8f7d73;fill-opacity:1"
         d="m 953.45076,422.58085 -320.10877,-60.83084 -123.38381,136.5 250.07899,45.56902 z"
         id="path47"
         sodipodi:nodetypes="ccccc" /><path
         style="opacity:1;fill:#665552;fill-opacity:1"
         d="m 509.95818,498.25001 123.38381,-136.5 -123.38381,97.5 z"
         id="path48"
         sodipodi:nodetypes="cccc" /><path
         style="opacity:1;fill:#8f7d73;fill-opacity:1"
         d="m 186.0757,356.65077 209.86901,-105.12776 114.01347,207.727 z"
         id="path49"
         sodipodi:nodetypes="cccc" /><path
         style="opacity:1;fill:#95837b;fill-opacity:1"
         d="m 395.94471,251.52301 237.39728,110.227 -123.38381,97.5 z"
         id="path50"
         sodipodi:nodetypes="cccc" /><path
         style="opacity:1;fill:#7d6a60;fill-opacity:1"
         d="m 519.37066,164.47974 -123.42595,87.04327 237.39728,110.227 z"
         id="path51"
         sodipodi:nodetypes="cccc" /><path
         style="opacity:1;fill:#8f7d73;fill-opacity:1"
         d="M 633.34199,361.75001 818.58968,341.18763 519.37066,164.47974 Z"
         id="path52"
         sodipodi:nodetypes="cccc" /><path
         style="opacity:1;fill:#665552;fill-opacity:1"
         d="m 818.58968,341.18763 15.25099,30.31238 -200.49868,-9.75 z"
         id="path53"
         sodipodi:nodetypes="cccc" /><path
         style="opacity:1;fill:#6b5a52;fill-opacity:1"
         d="m 953.45076,422.58085 -134.86108,-81.39322 15.25099,30.31238 z"
         id="path54"
         sodipodi:nodetypes="cccc" /><path
         style="opacity:1;fill:#7d6a60;fill-opacity:1"
         d="m 953.45076,422.58085 -320.10877,-60.83084 200.49868,9.75 z"
         id="path55"
         sodipodi:nodetypes="cccc" /></g></g><g
     inkscape:groupmode="layer"
     id="layer1"
     inkscape:label="LightningRod"
     transform="matrix(1.9211262,0,0,1.9211262,-438.06455,-164.23643)"
     style="display:none"><g
       inkscape:groupmode="layer"
       id="g21"
       inkscape:label="LightningRod"
       style="display:inline;mix-blend-mode:normal;filter:url(#filter21)"><path
         style="fill:#333333;fill-opacity:1;stroke-width:1.88976;stroke-linejoin:round"
         d="m 432.84331,566.50001 30.84595,-19.5 15.42297,-146.25 -15.42297,9.75 z"
         id="path11"
         sodipodi:nodetypes="ccccc" /><path
         style="fill:#333333;fill-opacity:1;stroke-width:1.88976;stroke-linejoin:round"
         d="m 556.09822,565.85094 -30.71706,-18.85093 -15.42298,-146.25 15.42298,9.75 z"
         id="path12"
         sodipodi:nodetypes="ccccc" /><path
         id="path13"
         style="display:inline;fill:#4d4d4d;stroke-width:1.67042;stroke-linejoin:round"
         d="m 467.32087,150.92296 -40.89792,249.93126 27.26605,17.23663 27.26545,-137.89311 -1.7e-4,155.12976 27.26562,17.23662 V 176.77791 Z"
         transform="matrix(1.1313111,0,0,1.1313111,-80.419657,93.509184)"
         sodipodi:nodetypes="cccccccc" /><path
         id="path14"
         style="display:inline;fill:#999999;stroke-width:1.67042;stroke-linejoin:round"
         d="m 549.11893,150.92296 -40.89903,25.85495 v 275.78621 l 27.26571,-17.23662 -2.6e-4,-155.12976 27.26544,137.89311 27.26615,-17.23663 z"
         transform="matrix(1.1313111,0,0,1.1313111,-80.419657,93.509184)"
         sodipodi:nodetypes="cccccccc" /><path
         style="fill:#666666;stroke-width:1.88976;stroke-linejoin:round"
         d="m 417.42033,244.75001 77.11488,48.75 V 196 l -77.11488,-48.75 z"
         id="path15" /><path
         style="fill:#b3b3b3;stroke-width:1.88976;stroke-linejoin:round"
         d="m 494.53521,293.50001 77.11488,-48.75 V 147.25 L 494.53521,196 Z"
         id="path16" /><path
         style="fill:#cccccc;stroke-width:1.88976;stroke-linejoin:round"
         d="M 417.42033,147.25 494.53521,98.500002 571.65009,147.25 494.53521,196 Z"
         id="path17" /></g><path
       style="fill:#333333;fill-opacity:1;stroke-width:1.88976;stroke-linejoin:round"
       d="m 432.84331,566.50001 30.84595,-19.5 15.42297,-146.25 -15.42297,9.75 z"
       id="path9"
       sodipodi:nodetypes="ccccc" /><path
       style="fill:#333333;fill-opacity:1;stroke-width:1.88976;stroke-linejoin:round"
       d="m 556.09822,565.85094 -30.71706,-18.85093 -15.42298,-146.25 15.42298,9.75 z"
       id="path10"
       sodipodi:nodetypes="ccccc" /><path
       id="path1"
       style="display:inline;fill:#4d4d4d;stroke-width:1.67042;stroke-linejoin:round"
       d="m 467.32087,150.92296 -40.89792,249.93126 27.26605,17.23663 27.26545,-137.89311 -1.7e-4,155.12976 27.26562,17.23662 V 176.77791 Z"
       transform="matrix(1.1313111,0,0,1.1313111,-80.419657,93.509184)"
       sodipodi:nodetypes="cccccccc" /><path
       id="path2"
       style="display:inline;fill:#999999;stroke-width:1.67042;stroke-linejoin:round"
       d="m 549.11893,150.92296 -40.89903,25.85495 v 275.78621 l 27.26571,-17.23662 -2.6e-4,-155.12976 27.26544,137.89311 27.26615,-17.23663 z"
       transform="matrix(1.1313111,0,0,1.1313111,-80.419657,93.509184)"
       sodipodi:nodetypes="cccccccc" /><path
       style="fill:#666666;stroke-width:1.88976;stroke-linejoin:round"
       d="m 417.42033,244.75001 77.11488,48.75 V 196 l -77.11488,-48.75 z"
       id="path3" /><path
       style="fill:#b3b3b3;stroke-width:1.88976;stroke-linejoin:round"
       d="m 494.53521,293.50001 77.11488,-48.75 V 147.25 L 494.53521,196 Z"
       id="path4" /><path
       style="fill:#cccccc;stroke-width:1.88976;stroke-linejoin:round"
       d="M 417.42033,147.25 494.53521,98.500002 571.65009,147.25 494.53521,196 Z"
       id="path5" /><path
       style="mix-blend-mode:normal;fill:#00ffff;stroke-width:1.88976;stroke-linejoin:round;filter:url(#filter6)"
       d="m 417.42033,186.25 77.11488,48.75001 77.11488,-48.75001 v 39.00001 l -77.11488,48.75 -77.11488,-48.75 z"
       id="path6" /><path
       style="fill:#b2ffff;fill-opacity:1;stroke-width:1.88976;stroke-linejoin:round"
       d="m 417.42033,186.25 77.11488,48.75001 77.11488,-48.75001 v 39.00001 l -77.11488,48.75 -77.11488,-48.75 z"
       id="path6-3" /><path
       style="display:inline;mix-blend-mode:normal;fill:#00ffff;stroke-width:1.88976;stroke-linejoin:round;filter:url(#filter7)"
       d="m 479.11223,147.25 15.42298,9.75 15.42297,-9.75 -15.42297,-9.75 z"
       id="path7" /><path
       style="display:inline;fill:#c1ffff;fill-opacity:1;stroke-width:1.88976;stroke-linejoin:round"
       d="m 479.11223,147.25 15.42298,9.75 15.42297,-9.75 -15.42297,-9.75 z"
       id="path7-1" /></g><g
     inkscape:groupmode="layer"
     id="layer4"
     inkscape:label="Electrode"
     style="display:inline"
     transform="matrix(2.6363637,0,0,2.6363637,-832.43479,-1187.1364)"><g
       inkscape:groupmode="layer"
       id="g72"
       inkscape:label="Electrode"
       style="display:inline;mix-blend-mode:normal;filter:url(#filter72)"><path
         style="display:inline;fill:#4d4d4d;fill-opacity:1;stroke-width:1.88976;stroke-linejoin:round"
         d="m 386.57438,693.25002 123.3838,78 v -136.5 l -77.11487,-48.75001 z"
         id="path65" /><path
         style="fill:#999999;fill-opacity:1;stroke-width:1.88976;stroke-linejoin:round"
         d="m 509.95818,771.25002 123.38381,-78 -46.26893,-107.25001 -77.11488,48.75001 z"
         id="path66"
         sodipodi:nodetypes="ccccc" /><path
         style="fill:#b3b3b3;fill-opacity:1;stroke-width:1.88976;stroke-linejoin:round"
         d="m 432.84331,586.00001 77.11487,48.75001 77.11488,-48.75001 -77.11488,-48.75 z"
         id="path67" /></g><path
       style="display:inline;fill:#4d4d4d;fill-opacity:1;stroke-width:1.88976;stroke-linejoin:round"
       d="m 386.57438,693.25002 123.3838,78 v -136.5 l -77.11487,-48.75001 z"
       id="path21" /><path
       style="fill:#999999;fill-opacity:1;stroke-width:1.88976;stroke-linejoin:round"
       d="m 509.95818,771.25002 123.38381,-78 -46.26893,-107.25001 -77.11488,48.75001 z"
       id="path56"
       sodipodi:nodetypes="ccccc" /><path
       style="fill:#b3b3b3;fill-opacity:1;stroke-width:1.88976;stroke-linejoin:round"
       d="m 432.84331,586.00001 77.11487,48.75001 77.11488,-48.75001 -77.11488,-48.75 z"
       id="path57" /><path
       id="path58"
       style="fill:#00ffff;fill-opacity:1;stroke-width:1.88976;stroke-linejoin:round;filter:url(#filter65)"
       d="M 419.61133,616.67188 399.75977,662.6875 509.95898,732.25 620.15625,662.6875 600.30469,616.67188 509.95898,673.75 Z" /><path
       style="mix-blend-mode:normal;fill:#00ffff;fill-opacity:1;stroke-width:1.88976;stroke-linejoin:round;filter:url(#filter63)"
       d="m 463.68926,586.00001 46.26892,29.25001 46.26893,-29.25001 -46.26893,-29.25 z"
       id="path60"
       sodipodi:nodetypes="ccccc" /><path
       style="fill:#adffff;fill-opacity:1;stroke-width:1.88976;stroke-linejoin:round"
       d="m 509.95818,732.25002 -110.19846,-69.56322 19.8518,-46.0159 90.34666,57.07912 z"
       id="path61" /><path
       style="fill:#adffff;fill-opacity:1;stroke-width:1.88976;stroke-linejoin:round"
       d="m 509.95818,732.25002 110.19846,-69.56322 -19.8518,-46.0159 -90.34666,57.07912 z"
       id="path62" /><path
       style="fill:#adffff;fill-opacity:1;stroke-width:1.88976;stroke-linejoin:round"
       d="m 463.68926,586.00001 46.26892,29.25001 46.26893,-29.25001 -46.26893,-29.25 z"
       id="path63"
       sodipodi:nodetypes="ccccc" /></g></svg>
